# xmcd
#
# Track frame offsets:
#	183
#	10450
#	23995
#	36040
#	46498
#	58663
#	71825
#	80443
#	91428
#	101135
#	111503
#	124398
#
# Disc length: 1815 seconds
#
# Revision: 1
# Processed by: cddbd v1.5.2PL0 Copyright (c) Steve Scherf et al.
# Submitted via: EZCDAudioConverter 9.1.1.1
#
DISCID=ac07150c
DTITLE=Wanda Jackson - Let's Have A Party
DYEAR=1992
DGENRE=Country
TTITLE0=Let's Have A Party
TTITLE1=Breathless
TTITLE2=Right Or Wrong
TTITLE3=Stupid, Cupid
TTITLE4=What In The World's Come Over You
TTITLE5=I Fall To Pieces
TTITLE6=Rave On
TTITLE7=Sweet Nothing's
TTITLE8=Oh Boy
TTITLE9=It's Only Make Believe
TTITLE10=Raining In My Heart
TTITLE11=Sweet Dreams
EXTD=
EXTT0=
EXTT1=
EXTT2=
EXTT3=
EXTT4=
EXTT5=
EXTT6=
EXTT7=
EXTT8=
EXTT9=
EXTT10=
EXTT11=
PLAYORDER=
